<svg xmlns="http://www.w3.org/2000/svg" viewBox="0 0 119 24"><path d="M64.436,124.3a5.347,5.347,0,0,1-1.659-.735l.933-2.384a5.8,5.8,0,0,0,1.377.652,4.96,4.96,0,0,0,1.462.236,2.134,2.134,0,0,0,.86-.125.436.436,0,0,0,.258-.4.49.49,0,0,0-.344-.457,6.446,6.446,0,0,0-1.106-.333,12.137,12.137,0,0,1-1.659-.5,2.932,2.932,0,0,1-1.156-.887,2.641,2.641,0,0,1-.491-1.678,3.143,3.143,0,0,1,.455-1.664,3.1,3.1,0,0,1,1.352-1.179,5.122,5.122,0,0,1,2.2-.429,6.837,6.837,0,0,1,1.733.221,4.941,4.941,0,0,1,1.511.625l-.872,2.371a4.871,4.871,0,0,0-2.4-.721q-1.118,0-1.119.61a.482.482,0,0,0,.332.444,7.183,7.183,0,0,0,1.093.305,9.68,9.68,0,0,1,1.66.485,2.787,2.787,0,0,1,1.167.873,2.537,2.537,0,0,1,.5,1.664,3.151,3.151,0,0,1-.455,1.664,3.207,3.207,0,0,1-1.364,1.178,5.041,5.041,0,0,1-2.188.43A8.327,8.327,0,0,1,64.436,124.3Zm-9.529.041v-9.706H61.9v2.469H57.757v1.137H61.4V120.6H57.757v1.275h4.3v2.468Zm21.74-.029L74.2,120.453h-.026v3.863H71.353v-9.7h2.8v3.575h.026l2.452-3.575h3.441l-3.352,4.438,3.525,5.26Zm-30.912,0v-9.7h3.231a8.313,8.313,0,0,1,1.964.226,4.309,4.309,0,0,1,1.652.78,3.92,3.92,0,0,1,1.144,1.473,6.3,6.3,0,0,1,.018,4.52,4.255,4.255,0,0,1-1.094,1.527,4.461,4.461,0,0,1-1.579.884,6.036,6.036,0,0,1-1.86.288Zm2.624-2.6h.717a2.558,2.558,0,0,0,1.671-.595,2.4,2.4,0,0,0,.64-1.742,2.224,2.224,0,0,0-.64-1.568,2.338,2.338,0,0,0-1.561-.636h-.828Z" transform="translate(38.266 -107.732)" fill="#2d96d4" stroke="rgba(0,0,0,0)" stroke-miterlimit="10" stroke-width="1"/><path d="M70.15,16.791a8.321,8.321,0,0,1-2.089-.263,5.338,5.338,0,0,1-1.659-.735l.934-2.385a5.792,5.792,0,0,0,1.376.652,4.944,4.944,0,0,0,1.462.236,2.133,2.133,0,0,0,.86-.125.436.436,0,0,0,.258-.4.491.491,0,0,0-.344-.458,6.394,6.394,0,0,0-1.106-.333,12.2,12.2,0,0,1-1.659-.5,2.922,2.922,0,0,1-1.155-.887,2.638,2.638,0,0,1-.492-1.678,3.143,3.143,0,0,1,.455-1.664,3.091,3.091,0,0,1,1.352-1.179,5.117,5.117,0,0,1,2.2-.43,6.818,6.818,0,0,1,1.733.222,4.945,4.945,0,0,1,1.512.624l-.873,2.371a4.867,4.867,0,0,0-2.4-.721q-1.118,0-1.118.61a.481.481,0,0,0,.332.444,7.019,7.019,0,0,0,1.094.305,9.736,9.736,0,0,1,1.659.485,2.787,2.787,0,0,1,1.167.873,2.535,2.535,0,0,1,.5,1.664,3.143,3.143,0,0,1-.455,1.664,3.2,3.2,0,0,1-1.364,1.178,5.034,5.034,0,0,1-2.187.43Z" transform="translate(-36.389 0.044)" fill="#fff"/><path d="M88.471,16.791a4.821,4.821,0,0,1-2.495-.652,4.607,4.607,0,0,1-1.733-1.8,5.441,5.441,0,0,1-.627-2.62,5.36,5.36,0,0,1,.627-2.607,4.583,4.583,0,0,1,1.733-1.816,5.1,5.1,0,0,1,4.989,0A4.583,4.583,0,0,1,92.7,9.11a5.36,5.36,0,0,1,.627,2.607,5.44,5.44,0,0,1-.627,2.62,4.607,4.607,0,0,1-1.733,1.8,4.821,4.821,0,0,1-2.495.652Zm0-2.648a1.692,1.692,0,0,0,.971-.291,2.1,2.1,0,0,0,.7-.846,3.027,3.027,0,0,0,.258-1.289,2.934,2.934,0,0,0-.258-1.276,1.981,1.981,0,0,0-.7-.846,1.638,1.638,0,0,0-.971-.305,1.693,1.693,0,0,0-.983.305,2.017,2.017,0,0,0-.688.846,2.934,2.934,0,0,0-.258,1.276,3.027,3.027,0,0,0,.258,1.289,2.14,2.14,0,0,0,.688.846A1.75,1.75,0,0,0,88.471,14.143Z" transform="translate(-45.389 0.044)" fill="#fff"/><path d="M98.064,14.129h-.787v2.44h-2.9V6.864h4.141a4.579,4.579,0,0,1,2.077.444,3.181,3.181,0,0,1,1.364,1.276,3.82,3.82,0,0,1,.479,1.941,3.776,3.776,0,0,1-.418,1.816,3.116,3.116,0,0,1-1.2,1.234l1.807,2.995h-3.1Zm1.45-3.6a1.117,1.117,0,0,0-.295-.832,1.178,1.178,0,0,0-.885-.305H97.278v2.274h1.057a1.211,1.211,0,0,0,.885-.291,1.166,1.166,0,0,0,.295-.846Z" transform="translate(-19.389 0.044)" fill="#fff"/><path d="M110.675,14.1v2.468h-7.152V6.864h6.993V9.332h-4.141v1.137h3.638v2.357h-3.638V14.1Z" transform="translate(-36.534 0.044)" fill="#fff"/><path d="M79.456,16.791A4.789,4.789,0,0,1,77,16.153a4.634,4.634,0,0,1-1.72-1.8,5.558,5.558,0,0,1-.614-2.634,5.476,5.476,0,0,1,.614-2.62A4.512,4.512,0,0,1,77,7.294a4.71,4.71,0,0,1,2.458-.652,4.872,4.872,0,0,1,2.237.5,4.274,4.274,0,0,1,1.622,1.442l-1.831,1.844A2.285,2.285,0,0,0,79.6,9.29a1.807,1.807,0,0,0-1.462.666,2.633,2.633,0,0,0-.553,1.761,2.688,2.688,0,0,0,.553,1.775,1.823,1.823,0,0,0,1.462.652,2.285,2.285,0,0,0,1.88-1.137l1.831,1.844a4.274,4.274,0,0,1-1.622,1.442A4.872,4.872,0,0,1,79.456,16.791Z" transform="translate(-17.226 0.044)" fill="#fff"/><path d="M79.456,16.791A4.789,4.789,0,0,1,77,16.153a4.634,4.634,0,0,1-1.72-1.8,5.558,5.558,0,0,1-.614-2.634,5.476,5.476,0,0,1,.614-2.62A4.512,4.512,0,0,1,77,7.294a4.71,4.71,0,0,1,2.458-.652,4.872,4.872,0,0,1,2.237.5,4.274,4.274,0,0,1,1.622,1.442l-1.831,1.844A2.285,2.285,0,0,0,79.6,9.29a1.807,1.807,0,0,0-1.462.666,2.633,2.633,0,0,0-.553,1.761,2.688,2.688,0,0,0,.553,1.775,1.823,1.823,0,0,0,1.462.652,2.285,2.285,0,0,0,1.88-1.137l1.831,1.844a4.274,4.274,0,0,1-1.622,1.442A4.872,4.872,0,0,1,79.456,16.791Z" transform="translate(-26.268 0.044)" fill="#fff"/><path d="M20.822,17.086v3.736H17.086v2.67h6.407V17.086ZM17.086,0V2.67h3.736V6.407h2.67V0ZM0,17.086v6.407H6.407v-2.67H2.668V17.086ZM0,0V6.407H2.668V2.67H6.407V0Z" fill="#1983bd"/><g transform="translate(5.313 5.313)"><path d="M6.718,3.827A6.189,6.189,0,1,1,.528-2.362,6.189,6.189,0,0,1,6.718,3.827" transform="translate(5.905 2.606)" fill="#fff"/><path d="M.53-2.6a6.433,6.433,0,0,0,0,12.867A6.437,6.437,0,0,0,6.964,3.842s0-.007,0-.011,0,0,0,0,0-.007,0-.011A6.437,6.437,0,0,0,.53-2.6Zm0,.488a5.945,5.945,0,1,1,0,11.89,5.945,5.945,0,0,1,0-11.89Z" transform="translate(5.903 2.604)" fill="#1983bd"/></g><g transform="translate(-579 -123)"><path d="M-3.278-1.4l-.5.444a6.464,6.464,0,0,0-2,3.507l.445.181c.171-.267.286-.471.527-.577l.1-.045L-4.667,2a5.956,5.956,0,0,1,1.2-2.148L-3.4-.235l-.022-.115c0,.006,0-.074.009-.154s.026-.165.036-.236Z" transform="translate(590.217 130.927)" fill="#1983bd"/><path d="M-1.906,2.906l-2.41.529-.023.169a2.615,2.615,0,0,0-.1.6,10.246,10.246,0,0,0,.125,2.029l.014.1.086.061A9.765,9.765,0,0,0-1.979,7.63L-1.8,7.7l1.6-2.225-.116-.145A14.541,14.541,0,0,1-1.819,3.069Z" transform="translate(590.229 130.966)" fill="#1983bd"/><path d="M3.253,2.681l-.081.186A18.626,18.626,0,0,1,1.85,5.351l-.108.172.149.138a8.519,8.519,0,0,1,1.3,1.6l.116.162.182-.081A6.926,6.926,0,0,0,5.62,6.105l.075-.06.014-.1a11.643,11.643,0,0,0,.032-2.569l-.014-.2-.2-.024a17.064,17.064,0,0,1-2.077-.428Z" transform="translate(590.284 130.964)" fill="#1983bd"/><path d="M.374-2.251l-.081.03A8.473,8.473,0,0,0-1.9-1.06l-.191.146.142.194a4.094,4.094,0,0,1,.264.366c.127.2.34.571.745,1.325l.077.144L-.7,1.1A21.048,21.048,0,0,1,2,1.019h.158L2.223.875a12.649,12.649,0,0,0,.6-1.785l.042-.149-.117-.1A6.276,6.276,0,0,0,.456-2.225Z" transform="translate(590.25 130.92)" fill="#1983bd"/><g transform="translate(584.765 136.9)"><path d="M-4.734,6.689A3.461,3.461,0,0,0-4.1,7.867,6.413,6.413,0,0,1-5.229,6.029,2.23,2.23,0,0,0-4.734,6.689Z" transform="translate(5.457 -5.906)" fill="#1983bd"/><path d="M-5.016,5.907l-.439.211a6.641,6.641,0,0,0,1.164,1.9l.009.011.384-.3a3.461,3.461,0,0,1-.595-1.081l-.02-.1L-4.6,6.485a2.953,2.953,0,0,1-.417-.578Z" transform="translate(5.455 -5.907)" fill="#1983bd"/></g><g transform="translate(595.9 137.166)"><path d="M5.879,6.492a1.606,1.606,0,0,1-.067.3,2.837,2.837,0,0,0,.24-.47A.554.554,0,0,1,5.879,6.492Z" transform="translate(-5.579 -6.169)" fill="#1983bd"/><path d="M5.866,6.17c-.061.074-.119.115-.078.1l-.133.055-.016.143a1.373,1.373,0,0,1-.058.256l.438.206a3.073,3.073,0,0,0,.261-.51Z" transform="translate(-5.581 -6.17)" fill="#1983bd"/></g><path d="M-.764,8.733l-.087.131a1.378,1.378,0,0,1-.614.444l-.139.066v.314l.146.064a4.691,4.691,0,0,0,2.176.4H.723a6.01,6.01,0,0,0,2.061-.466L3.2,9.541l-.991-.793-.1.014a9.236,9.236,0,0,1-2.714,0Z" transform="translate(590.254 131.018)" fill="#1983bd"/><path d="M6.975,13.833a2.185,2.185,0,0,0-.718.554l.346.344a1.567,1.567,0,0,1,.613-.474Z" transform="translate(579.056 123.124)" fill="#1983bd"/><path d="M6.5,9.717l-.477.106a5.212,5.212,0,0,0,.852,1.831l.4-.276A4.723,4.723,0,0,1,6.5,9.717Z" transform="translate(579.054 123.087)" fill="#1983bd"/><path d="M9.425,6.749a4.611,4.611,0,0,0-2.046.6l.228.432a4.141,4.141,0,0,1,1.828-.54Z" transform="translate(579.066 123.061)" fill="#1983bd"/><path d="M10.23,8.579,8.9,10.954l.426.238,1.329-2.375Z" transform="translate(579.08 123.077)" fill="#1983bd"/><path d="M13.32,8.46l-.372.317a9.793,9.793,0,0,1,1.394,2.18l.441-.209A10.282,10.282,0,0,0,13.32,8.46Z" transform="translate(579.116 123.076)" fill="#1983bd"/><path d="M10.619,13.083v.488h2.627v-.488Z" transform="translate(579.095 123.118)" fill="#1983bd"/><path d="M9.471,15.12l-.434.224a5.521,5.521,0,0,0,1.33,1.725l.316-.373A5.023,5.023,0,0,1,9.471,15.12Z" transform="translate(579.081 123.136)" fill="#1983bd"/><path d="M14.327,14.856a7.357,7.357,0,0,1-1.238,1.874l.369.32a7.8,7.8,0,0,0,1.318-2Z" transform="translate(579.118 123.133)" fill="#1983bd"/><path d="M16.739,13.552l-.268.408a.871.871,0,0,1,.35.485l.463-.154a1.389,1.389,0,0,0-.545-.738Z" transform="translate(579.148 123.122)" fill="#1983bd"/><path d="M16.855,9.5a3.916,3.916,0,0,1-.432,1.657l.425.241a4.382,4.382,0,0,0,.494-1.856Z" transform="translate(579.148 123.085)" fill="#1983bd"/><path d="M13.726,6.64l-.031.487a5.394,5.394,0,0,1,1.9.442l.2-.446a5.91,5.91,0,0,0-2.066-.484Z" transform="translate(579.123 123.06)" fill="#1983bd"/><path d="M11.648,5.366l-.392.291c-.019-.026.024.069.028.228l.488-.013a.834.834,0,0,0-.125-.506Z" transform="translate(579.101 123.048)" fill="#1983bd"/><path d="M8.049,16.313l-.237.427a8.915,8.915,0,0,0,1.946.895l.131-.47a8.6,8.6,0,0,1-1.84-.852Z" transform="translate(579.07 123.147)" fill="#1983bd"/><path d="M4-1.584l.3.847A.24.24,0,0,1,4.282-.6l-.046.133.091.107A8.761,8.761,0,0,1,5.718,1.779l.034.076.073.04a.707.707,0,0,1,.353.355l.452-.177A6.274,6.274,0,0,0,4.687-1.006Z" transform="translate(590.305 130.926)" fill="#1983bd"/></g><path d="M5.975,14.129,16.132,7.373ZM16.132,7.373A6.211,6.211,0,0,1,5.975,14.129,6.211,6.211,0,1,0,16.132,7.373Z" transform="translate(0.054 0.066)" fill-opacity="0.25"/></svg>
